
<svg xmlns="http://www.w3.org/2000/svg" fill="none" viewBox="0 0 51 80">
  <style>
    path,
    ellipse,
    rect {fill: green}
    a:hover{ outline: 1px red dashed}
    text{
        fill: #000;font-size: 5px;font-family: sans-serif;
    }
    
    #svgd .red {
    fill: red; /* The default: red */
    }
    
    a#svgd:link path[class^="re"] { fill: cyan; }
    a:not([rel="external"]) {color: red;}
    
  </style><a href="#0" id="svgd">
    <g class="hand" fill="none" stroke="#000" stroke-linecap="round" stroke-linejoin="round" stroke-width="3">
      <rect width="9.5" height="20.7" rx="4.7" transform="rotate(-26 80.882 11.47)"></rect>
      <ellipse cx="14.8" cy="14.3" rx="8.8" ry="8.3"></ellipse>
      <path class="red" d="M10 14.7c0-2.6 2.2-4.7 4.8-4.7 2.6 0 4.8 2.1 4.8 4.7v21.2V31c0-2.6 2.1-4.7 4.7-4.7s4.8 2.1 4.8 4.7V31.2c0-1.3 2.3-4.2 4.7-4.2 2.6 0 4.8 2.1 4.8 4.7v2c.3-2.3 2.3-4.1 4.7-4.1 2.6 0 4.8 2.1 4.8 4.7v11.6c0 10.4-8.5 18.9-19 18.9S10 56.3 10 45.9V14.7z"></path>
    </g>
    <text x="5" y="75">a#svgd:link path[class^="re"]    </text></a>
</svg>