<svg width="600" height="249" viewBox="0 0 600 249" fill="none" xmlns="http://www.w3.org/2000/svg">
    <style>
        .evenodd{fill-rule:evenodd;clip-rule:evenodd}
        .label-text{fill: black; white-space: pre; font-family:"Roboto", sans-serif; font-size:12px; letter-spacing:0}
    </style>
    <defs>
        <clipPath id="clip0">
            <rect width="600" height="249" fill="white"/>
        </clipPath>
    </defs>
<g clip-path="url(#clip0)">
<path class="base" d="M600 0H0V249H600V0Z" fill="white"/>
<g class="lines">
    <path class="evenodd" d="M604 25H0V24H604V25Z" fill="#C4C4C4"/>
    <path class="evenodd" d="M604 134H0V133H604V134Z" fill="#C4C4C4"/>
    <path class="evenodd" d="M604 108H0V107H604V108Z" fill="#C4C4C4"/>
    <path class="evenodd" d="M604 56H0V55H604V56Z" fill="#C4C4C4"/>
</g>
<path d="M80.8 80.1H54.1C52.3429 84.2845 50.7088 88.5197 49.2 92.8C48.5762 94.9242 48.1412 97.0993 47.9 99.3C47.9 101.2 48.5 102.5 49.7 103.2C50.9 103.9 52.9 104.2 55.7 104.2V108H31.4V104.2C32.9 104 34.2 103.7 35.3 103.4C37.3903 102.821 39.2014 101.508 40.4 99.7C41.1 98.7 41.7 97.5 42.3 96.1L68.3 31H72.6L95.3 87.4C96.8 91.1 98.2 94.1 99.3 96.4C100.4 98.6 101.5 100.3 102.6 101.4C103.6 102.5 104.8 103.3 106 103.6C107.3 103.9 108.8 104.1 110.5 104.1V108H77.9V104.1C81.4 104.1 83.9 103.8 85.2 103.1C86.5 102.4 87.2 101.3 87.2 99.8C87.2143 97.7713 86.8056 95.7619 86 93.9L84.9 90.9L80.8 80.1ZM56.1 75.1H78.9L67.8 45.6L56.1 75.1ZM180.3 76C180.3 73.5 179.9 71.3 179.2 69.2C178.568 67.2546 177.551 65.4558 176.212 63.9099C174.872 62.364 173.236 61.1025 171.4 60.2C169.6 59.3 167.6 58.9 165.6 58.9C163.327 58.8642 161.083 59.4161 159.086 60.5024C157.088 61.5886 155.405 63.1723 154.2 65.1C152.8 67.1 151.8 69.4 151.1 72.2C149.503 78.3311 149.503 84.7689 151.1 90.9C151.8 93.7 152.8 96.1 154.1 98.1C155.6 100.1 157.2 101.5 159.1 102.6C161.1 103.6 163.3 104.2 165.7 104.2C168.4 104.2 170.9 103.6 173.1 102.3C175.3 101 176.9 99.3 178.1 96.9C179.5 93.9 180.3 89.9 180.3 84.8V76ZM180.6 100.8H180.2C177.8 103.8 175.4 105.8 172.9 107.1C170.094 108.442 167.009 109.093 163.9 109C160.522 109.071 157.166 108.452 154.036 107.179C150.906 105.907 148.07 104.008 145.7 101.6C143.305 98.992 141.453 95.9337 140.251 92.6032C139.049 89.2726 138.522 85.7363 138.7 82.2C138.652 74.8373 141.323 67.7158 146.2 62.2C148.512 59.6802 151.299 57.6413 154.4 56.2C157.4 54.7 160.9 54 164.4 54C167.922 53.9841 171.41 54.6953 174.645 56.0891C177.88 57.4828 180.792 59.5291 183.2 62.1L187.6 55.2H190.1V117C190.1 119.8 190.1 122 190.3 123.6C190.5 125.2 190.9 126.4 191.6 127.3C192.3 128.2 193.3 128.7 194.6 129C196.1 129.3 198 129.4 200.4 129.5V133H169.9V129.5C171.9 129.5 173.7 129.2 175.1 128.8C176.377 128.542 177.536 127.875 178.4 126.9C179.2 126 179.7 124.9 180.1 123.3C180.4 121.8 180.6 120 180.6 117.7V100.8ZM245.5 71C245.5 68.3 245.5 66.1 245.3 64.6C245.269 63.3221 244.889 62.0771 244.2 61C243.922 60.5607 243.556 60.1831 243.126 59.8907C242.696 59.5983 242.211 59.3972 241.7 59.3C240.7 59 239.1 58.7 237.2 58.5V55H255.2V85.7L255.4 95C255.5 97.4 255.7 99.2 255.9 100.4C256 101.3 256.2 102 256.5 102.5C256.8 103 257.3 103.4 257.9 103.7C258.5 104 259.3 104.2 260.2 104.3L264 104.4V107.9L247.5 109.1L246.4 97.1H246C243.871 100.82 240.846 103.948 237.2 106.2C234.427 107.839 231.308 108.802 228.093 109.011C224.879 109.219 221.661 108.667 218.7 107.4C216.1 106.4 214.1 104.9 212.7 103.1C211.7 101.6 210.8 99.6 210.3 97C209.8 94.4 209.6 91 209.6 86.9V71C209.6 68.3 209.6 66.1 209.4 64.6C209.369 63.3221 208.989 62.0771 208.3 61C208.022 60.5607 207.656 60.1831 207.226 59.8907C206.796 59.5983 206.311 59.3972 205.8 59.3C204.8 59 203.2 58.7 201.3 58.5V55H219.3V82.3C219.3 89.6 220.3 94.8 221.9 98.1C222.64 99.6276 223.81 100.905 225.267 101.776C226.724 102.647 228.404 103.072 230.1 103C236 103 240.5 99.2 243.8 91.5C244.379 90.0803 244.814 88.6063 245.1 87.1C245.47 85.0218 245.605 82.9084 245.5 80.8V71ZM289 92.1C289 94.7 289 96.8 289.3 98.4C289.486 99.7219 289.965 100.986 290.7 102.1C291.3 103 292.3 103.6 293.5 103.9C294.7 104.2 296.3 104.4 298.3 104.5V108H269.6V104.5C271.6 104.5 273.2 104.2 274.5 103.9C275.621 103.593 276.628 102.968 277.4 102.1C278.1 101.2 278.6 100.1 278.8 98.6C279 97.1 279.2 95.1 279.2 92.8V80C279.164 75.0926 278.93 70.1886 278.5 65.3C278.1 63.8 277.4 62.7 276.2 62.2C275 61.6 272.7 61.3 269.4 61.3V57.8L289 54V92.1ZM277.5 33.7C277.484 32.8827 277.636 32.0708 277.946 31.3141C278.255 30.5575 278.716 29.8721 279.3 29.3C279.872 28.716 280.558 28.2552 281.314 27.9456C282.071 27.6361 282.883 27.4845 283.7 27.5C284.517 27.4845 285.329 27.6361 286.086 27.9456C286.843 28.2552 287.528 28.716 288.1 29.3C288.684 29.8721 289.145 30.5575 289.454 31.3141C289.764 32.0708 289.916 32.8827 289.9 33.7C289.916 34.5173 289.764 35.3292 289.454 36.0859C289.145 36.8425 288.684 37.5279 288.1 38.1C287.528 38.684 286.843 39.1448 286.086 39.4544C285.329 39.7639 284.517 39.9155 283.7 39.9C282.883 39.9155 282.071 39.7639 281.314 39.4544C280.558 39.1448 279.872 38.684 279.3 38.1C278.716 37.5279 278.255 36.8425 277.946 36.0859C277.636 35.3292 277.484 34.5173 277.5 33.7ZM350.9 99.7C348.5 102.7 345.4 104.9 341.6 106.6C337.703 108.218 333.52 109.035 329.3 109C325.939 109.032 322.606 108.386 319.5 107.1C316.527 105.766 313.869 103.821 311.698 101.392C309.527 98.9626 307.892 96.1032 306.9 93C304.444 85.6491 304.55 77.6831 307.2 70.4C308.41 67.0976 310.325 64.0985 312.812 61.6115C315.298 59.1246 318.298 57.2097 321.6 56C329.384 53.1771 337.94 53.3553 345.6 56.5C347.2 57.2 348.4 58.2 349.3 59.3C350.1 60.3 350.6 61.5 350.6 62.8C350.6 64.1 350.1 65.2 349.3 65.9C348.3 66.6 347.2 67 345.7 67C344.5 67 343.5 66.8 342.7 66.3C341.9 65.8 340.8 64.6 339.6 62.9C338.502 61.5686 337.14 60.4791 335.6 59.7C334.5 59 332.9 58.7 331 58.7C326.2 58.7 322.6 60.5 320.2 64.2C317.8 67.9 316.6 73.2 316.6 80.4C316.6 88.1 317.9 93.9 320.6 97.9C323.3 101.9 327.3 103.8 332.5 103.8C335.3 103.8 337.9 103.3 340.4 102.2C342.8 101.1 345.4 99.2 347.9 96.8L350.9 99.7ZM388.7 104.5C390.206 104.554 391.714 104.454 393.2 104.2C394 104 394.5 103.7 394.5 103.4C394.5 102.9 393.9 101.9 392.9 100.5L388.9 95.5L378.4 82.7L374.7 86.2V92.1C374.7 94.7 374.7 96.8 375 98.4C375.185 99.707 375.627 100.965 376.3 102.1C376.9 103 377.9 103.6 379.1 103.9C380.3 104.2 382 104.4 384 104.5V108H355.6V104.5C357.6 104.5 359.2 104.2 360.4 103.9C361.6 103.6 362.6 102.9 363.3 102.1C364 101.2 364.5 100.1 364.8 98.6C365 97.1 365.2 95.2 365.2 92.8V50.9C365.2 45.9 365.2 42 365 39.4C365 36.8 364.6 35 364 34.1C363.4 33.1 362.4 32.6 361 32.5C359.6 32.3 357.7 32.2 355.4 32.2V28.8L374.7 25V79.9L384 70.8L390.7 64.2C392.1 62.7 392.9 61.6 392.9 60.9C392.9 60.2 392.2 59.6 390.8 59.2C389.4 58.7 387.4 58.5 384.8 58.5V55H410.8V58.5C409.5 58.5 408.4 58.5 407.5 58.7C406.5 58.8 405.6 59.1 404.8 59.5C402.74 60.7537 400.798 62.193 399 63.8L384.6 76.6L404.4 99L406.9 101.8C408.272 103.013 409.92 103.872 411.7 104.3L415 104.5V108H388.7V104.5ZM497.5 91.8C497.5 94.4 497.6 96.5 497.8 98.2C498 99.8 498.4 101.1 498.9 102C499.5 102.9 500.2 103.5 501.1 103.8C502.1 104.1 503.3 104.3 504.8 104.3V108H479.1V104.3C481.1 104.3 482.5 104.1 483.6 103.8C484.8 103.5 485.6 102.8 486.2 102C486.8 101.1 487.2 100 487.4 98.4C487.6 96.9 487.7 94.9 487.7 92.6V80C487.661 75.126 487.428 70.2554 487 65.4C486.7 63.8 486 62.7 484.7 62.2C483.5 61.6 481.3 61.3 477.9 61.3H465.4V91.9C465.4 94.4 465.5 96.4 465.7 98.1C466 99.7 466.4 101 467 101.9C467.7 102.9 468.6 103.5 469.6 103.9C470.7 104.3 472.1 104.5 473.8 104.5V108H448.4V104.5C450.1 104.5 451.4 104.4 452.4 104.1C453.4 103.8 454.2 103.3 454.7 102.4C455.3 101.5 455.7 100.4 455.7 98.8C455.9 97.3 456 95.2 456 92.7V61.3H444.7V56.6H456V49.4C456 41.7 458.2 35.8 462.6 31.5C467 27.2 473.3 25 481.3 25C486.1 25 489.9 25.6 492.8 26.8C495.8 27.9 497.3 29.4 497.3 31.3C497.3 32.6 496.9 33.8 496 34.7C495.62 35.1158 495.156 35.4465 494.639 35.6705C494.122 35.8945 493.563 36.0068 493 36C492.1 36 491.2 35.8 490.2 35.3C489.2 34.8 488 34.1 486.4 33C484.901 32.0156 483.33 31.1464 481.7 30.4C481.1 30.1 480.5 30 479.8 29.9C477.245 29.6531 474.667 29.8906 472.2 30.6C470.658 31.1391 469.327 32.1547 468.4 33.5C467.4 34.9 466.7 36.8 466.1 39.3C465.7 41.8 465.4 44.9 465.4 48.8V56.6H481.4L497.5 54V91.8ZM547.2 66.8C548.8 64.8 549.6 63.1 549.6 61.7C549.6 59.6 547.6 58.5 543.6 58.5V55H565.6V58.5C563.44 58.4254 561.31 59.0191 559.5 60.2C558.5 60.8 557.5 61.6 556.5 62.7L553.4 66.5L543 79.6L556.3 97.1C558.3 99.8 560.3 101.8 562 102.9C563.718 103.944 565.69 104.498 567.7 104.5V108H541.1V104.5C543.5 104.5 545.1 104.3 546.1 104C547.1 103.6 547.5 102.9 547.5 101.8C546.448 99.6935 545.21 97.6854 543.8 95.8L536.8 86.8L528.3 97.6C527.385 98.5815 526.853 99.859 526.8 101.2C526.8 101.666 526.908 102.125 527.117 102.542C527.325 102.958 527.627 103.321 528 103.6C528.8 104.2 530 104.5 531.8 104.5V108H508.8V104.5C510.211 104.523 511.619 104.389 513 104.1C514.2 103.8 515.3 103.4 516.4 102.7C517.5 102 518.6 101.1 519.8 99.9L523.8 95.4L534 82.9L520.8 64C519.2 61.9 517.8 60.4 516.6 59.7C515.148 58.8492 513.482 58.4327 511.8 58.5V55H536.4V58.5C534.6 58.5 533.3 58.7 532.4 59.2C531.7 59.6 531.3 60.2 531.3 60.9C531.3 61.9 531.9 63.3 533.2 65.1L540.4 75.6L547.2 66.8Z" fill="black"/>
<path class="evenodd" d="M11.1 113L14 108L16.9 113H14.5V122H13.5V113H11.1Z" fill="#AC6970"/>
<path d="M15.5 136V137.2C15.5 137.5 15.6 137.7 15.8 137.9L16.3 138.2L17.3 138.3V139H11.8V138.3H12.8L13.3 137.9L13.6 137.3V129.6C13.6165 128.733 13.6165 127.867 13.6 127C13.6 126.7 13.4 126.5 13.1 126.5L11.7 126.4V125.7C12.9967 125.679 14.2808 125.442 15.5 125V136Z" fill="#9A565A"/>
<path class="evenodd" d="M13.6 137.3L13.3 137.9V138L12.8 138.2L11.8 138.3V139H17.3V138.3C16.9675 138.333 16.6324 138.333 16.3 138.3L15.9 138L15.8 137.9C15.6 137.7 15.6 137.5 15.5 137.2V125C14.2674 125.391 12.9909 125.626 11.7 125.7V126.4C12.239 126.408 12.7755 126.475 13.3 126.6C13.5 126.6 13.6 126.8 13.6 127V137.2V137.3ZM13.4 124.5L15.1 124L16.5 123.6V136C16.477 136.366 16.477 136.734 16.5 137.1L17.4 137.2H18.4V139.9H10.8V137.2H11.8C12.0659 137.227 12.334 137.227 12.6 137.2V137V129.5V127.8V127.3H10.7V124.7H11.7L13.4 124.4V124.5Z" fill="#FEFEFE"/>
<path class="evenodd" d="M103.1 113L106 108L108.9 113H106.5V122H105.5V113H103.1Z" fill="#AC6970"/>
<path d="M101.6 134.9L107.9 124.9H108.5V134.9H109.3L109.8 134.6C110 134.5 110 134.3 110.1 134.1V133.3H110.8V137.3H110.1V136.5C110.1 136.3 110 136.1 109.8 136C109.661 135.878 109.485 135.807 109.3 135.8C109.034 135.779 108.766 135.779 108.5 135.8V137.1L108.7 137.8C108.8 138 109 138.1 109.1 138.1L109.9 138.2V138.9H104.9V138.2H105.8L106.3 137.8L106.6 137.2V135.7H101.6V134.7V134.9ZM106.6 128.5L102.5 134.9H106.7V128.5H106.6Z" fill="#9A565A"/>
<path class="evenodd" d="M100.6 134.6L107.3 124H109.5V132.3H111.8V138.3H110.8V140H103.8V137.3H105.5L105.6 137.1V136.8H100.6V134.6ZM101.6 134.9V135.8H106.6V136.2C106.62 136.533 106.62 136.867 106.6 137.2C106.6 137.5 106.5 137.7 106.3 137.9V138L105.8 138.2C105.472 138.275 105.136 138.309 104.8 138.3V139H109.8V138.3C109.567 138.324 109.333 138.324 109.1 138.3C108.922 138.22 108.78 138.078 108.7 137.9L108.5 137.2C108.468 136.834 108.468 136.466 108.5 136.1V135.7C108.836 135.699 109.171 135.732 109.5 135.8L109.8 136C110 136.1 110 136.3 110.1 136.5V137.3H110.8V133.3H110.1V134.1C110.1 134.3 110 134.5 109.8 134.6L109.5 134.8H109.3L108.5 134.9V124.9H107.9L101.6 134.9ZM106.6 128.5L102.5 134.9H106.7V128.5H106.6ZM104.3 133.9L105.7 131.7V133.9H104.3Z" fill="#FEFEFE"/>
<path class="evenodd" d="M402.1 113L405 108L407.9 113H405.5V122H404.5V113H402.1Z" fill="#AC6970"/>
<path d="M400.4 136V137.2L400.7 137.9L401.3 138.2L402.3 138.3V139H396.8V138.3H397.8L398.3 137.9L398.6 137.3V129.6C398.617 128.733 398.617 127.867 398.6 127C398.6 126.7 398.3 126.5 398 126.5L396.7 126.4V125.7C397.963 125.668 399.212 125.432 400.4 125V136Z" fill="#9A565A"/>
<path d="M411.2 135.1C411.2 134.1 411 133.4 410.6 132.8C410.404 132.538 410.146 132.327 409.85 132.188C409.553 132.048 409.227 131.984 408.9 132C408.527 132.188 408.117 132.291 407.7 132.3C407.494 132.33 407.285 132.295 407.1 132.2C407.022 132.144 406.962 132.068 406.927 131.979C406.891 131.891 406.882 131.794 406.9 131.7C406.9 131.6 406.9 131.4 407.1 131.4L407.6 131.2H408.2L408.7 131.4C409.4 131.4 409.9 131.1 410.3 130.6C410.728 129.912 410.938 129.11 410.9 128.3C410.9 126.6 410.2 125.7 408.8 125.7C408.1 125.7 407.6 125.9 407.3 126.2C406.9 126.5 406.7 126.8 406.7 127.4C406.7 127.8 406.8 128.1 407.1 128.4C407.3 128.6 407.6 128.7 408.1 128.7L407.6 129.2L406.7 129.4L406 129.3L405.4 128.9L405.1 128.3C404.975 128.013 404.918 127.701 404.936 127.388C404.953 127.075 405.044 126.771 405.2 126.5C405.4 126.1 405.6 125.9 406 125.7C406.3 125.4 406.7 125.3 407.2 125.1C408.282 124.816 409.418 124.816 410.5 125.1L411.9 125.8L412.7 126.8C412.9 127.2 413 127.7 413 128.2C413 128.6 413 129 412.8 129.3L412.3 130.3L411.3 131L410.3 131.5V131.6L411.6 132.1L412.6 132.9C413.073 133.441 413.373 134.111 413.462 134.823C413.551 135.536 413.425 136.259 413.1 136.9C412.9 137.3 412.5 137.7 412.1 138.1L410.6 138.9C409.955 139.112 409.279 139.214 408.6 139.2C407.528 139.236 406.475 138.92 405.6 138.3C405.2 138 404.9 137.7 404.7 137.3C404.523 136.963 404.423 136.591 404.406 136.211C404.388 135.831 404.455 135.452 404.6 135.1C404.6 134.8 404.8 134.6 405 134.4L405.6 133.9C405.877 133.751 406.186 133.673 406.5 133.673C406.814 133.673 407.123 133.751 407.4 133.9C407.6 134.1 407.8 134.3 407.8 134.5C407.4 134.5 407 134.7 406.8 135C406.4 135.3 406.3 135.7 406.3 136.3C406.3 136.9 406.5 137.3 406.9 137.8C407.4 138.1 407.9 138.3 408.7 138.3C409.5 138.3 410.1 138.1 410.5 137.5C411 137 411.2 136.2 411.2 135.1Z" fill="#9A565A"/>
<path class="evenodd" d="M398.6 137.3L398.3 137.9L398.2 138L397.7 138.2L396.7 138.3V139H402.3V138.3C401.967 138.333 401.632 138.333 401.3 138.3L400.8 138V137.9C400.6 137.7 400.5 137.5 400.5 137.2V125C399.78 125.22 399.044 125.387 398.3 125.5L396.7 125.7V126.4C397.206 126.415 397.708 126.482 398.2 126.6C398.4 126.6 398.5 126.8 398.6 127V137.2V137.3ZM398.3 124.5L400.1 124L401.4 123.6V136C401.41 136.368 401.444 136.736 401.5 137.1L402.3 137.2H403.3V139.9H395.8V137.2H396.8C397.066 137.227 397.334 137.227 397.6 137.2V137V129.5V127.8V127.3H395.6V124.7H396.6L398.3 124.4V124.5ZM409.8 133.5C409.734 133.365 409.636 133.248 409.514 133.161C409.391 133.074 409.249 133.018 409.1 133C408.781 133.143 408.445 133.244 408.1 133.3C408.5 133.5 408.7 133.8 408.8 134.3L409.1 135.5H407.8C407.7 135.5 407.6 135.5 407.5 135.7C407.4 135.7 407.3 135.9 407.3 136.3C407.3 136.6 407.4 136.8 407.6 137C407.8 137.2 408.1 137.3 408.6 137.3C409.2 137.3 409.6 137.2 409.8 136.9C410 136.6 410.2 136.1 410.2 135.1C410.2 134.3 410 133.7 409.8 133.4V133.5ZM410.5 137.5C410.335 137.704 410.131 137.874 409.9 138C409.6 138.2 409.2 138.3 408.7 138.3C408.1 138.3 407.7 138.3 407.3 138L406.9 137.8C406.701 137.605 406.545 137.372 406.442 137.113C406.338 136.855 406.29 136.578 406.3 136.3C406.276 136.02 406.318 135.739 406.422 135.479C406.526 135.218 406.69 134.986 406.9 134.8C407.182 134.575 407.54 134.467 407.9 134.5L407.4 133.9C407.095 133.733 406.746 133.663 406.4 133.7C406.2 133.7 405.9 133.7 405.6 133.9L405 134.4C404.61 134.842 404.397 135.411 404.4 136C404.4 136.4 404.5 136.9 404.7 137.3C404.9 137.7 405.2 138 405.7 138.3C406.101 138.564 406.539 138.766 407 138.9C407.5 139.1 408 139.2 408.7 139.2C409.345 139.199 409.986 139.098 410.6 138.9C411.2 138.7 411.6 138.4 412.1 138.1C412.5 137.7 412.9 137.3 413.1 136.8C413.3 136.4 413.5 135.8 413.5 135.3C413.487 134.401 413.129 133.542 412.5 132.9C411.898 132.276 411.137 131.827 410.3 131.6V131.5C410.539 131.415 410.773 131.315 411 131.2C411.2 131.2 411.3 131.2 411.4 131H411.5C411.959 130.691 412.336 130.274 412.597 129.786C412.858 129.298 412.997 128.754 413 128.2C413.028 127.74 412.942 127.281 412.751 126.862C412.559 126.444 412.267 126.079 411.9 125.8C411.5 125.6 411.1 125.3 410.5 125.2C410 125 409.4 125 408.8 125C408.127 124.963 407.452 125.03 406.8 125.2L406 125.7C405.6 125.9 405.4 126.1 405.2 126.5C405.044 126.771 404.953 127.075 404.936 127.388C404.918 127.701 404.975 128.013 405.1 128.3L404.1 128.6C403.919 128.166 403.843 127.695 403.878 127.226C403.913 126.757 404.057 126.303 404.3 125.9C404.938 125.024 405.855 124.389 406.9 124.1C408.218 123.77 409.6 123.805 410.9 124.2L412.5 125C413.219 125.519 413.739 126.267 413.975 127.122C414.211 127.976 414.15 128.885 413.8 129.7L413 130.9L412.5 131.5L413.3 132.3C413.903 132.968 414.292 133.801 414.417 134.693C414.542 135.584 414.397 136.492 414 137.3C413.7 137.9 413.3 138.4 412.7 138.8C412.2 139.3 411.7 139.6 410.9 139.8C410.193 140.05 409.45 140.185 408.7 140.2C407.39 140.288 406.088 139.936 405 139.2V139.1C404.5 138.7 404.1 138.3 403.8 137.8C403.552 137.344 403.406 136.84 403.372 136.322C403.337 135.804 403.415 135.285 403.6 134.8L404.2 133.8C404.447 133.505 404.752 133.264 405.096 133.092C405.44 132.92 405.816 132.82 406.2 132.8C406 132.5 405.9 132.1 405.9 131.8C405.873 131.513 405.935 131.224 406.078 130.973C406.221 130.723 406.439 130.522 406.7 130.4C406.3 130.4 406 130.4 405.7 130.2H405.6L404.7 129.6C404.4 129.3 404.3 129 404.1 128.6L405.1 128.3L405.4 128.9L406 129.3L406.7 129.4H406.8C407.1 129.4 407.3 129.4 407.6 129.2L408 128.7C407.673 128.717 407.351 128.61 407.1 128.4C406.8 128.1 406.7 127.8 406.7 127.4C406.7 126.8 406.9 126.4 407.3 126.2C407.332 126.165 407.365 126.132 407.4 126.1C407.8 125.8 408.2 125.7 408.8 125.7C409.3 125.7 409.8 125.9 410.1 126.1C410.6 126.5 410.9 127.2 410.9 128.3C410.931 129.109 410.723 129.909 410.3 130.6L410.2 130.7C410.086 130.852 409.952 130.986 409.8 131.1C409.51 131.309 409.157 131.415 408.8 131.4C408.603 131.352 408.402 131.318 408.2 131.3H407C406.8 131.4 406.8 131.6 406.8 131.7C406.8 131.9 406.8 132.1 407 132.2L407.6 132.3C407.799 132.33 408.001 132.33 408.2 132.3C408.412 132.226 408.614 132.125 408.8 132H409.2C409.493 132.071 409.767 132.208 410 132.4C410.187 132.506 410.356 132.641 410.5 132.8C410.9 133.4 411.1 134.2 411.1 135.1C411.1 136.1 410.9 137 410.4 137.5H410.5ZM408.9 130.5C409.1 130.4 409.3 130.3 409.5 130C409.7 129.6 409.9 129 409.9 128.3C409.9 127.5 409.7 127.2 409.6 127C409.5 126.9 409.3 126.7 408.8 126.7C408.3 126.7 408 126.8 407.8 127V127.7H409.3L409 129C408.8 129.5 408.4 129.9 408 130.1L407.8 130.2C408.14 130.226 408.476 130.293 408.8 130.4L408.9 130.5Z" fill="#FEFEFE"/>
<path class="evenodd" d="M343.1 107L346 102L348.9 107H346.5V122H345.5V107H343.1Z" fill="#AC6970"/>
<path d="M343.4 136V137.2L343.8 137.9L344.3 138.2L345.3 138.3V139H339.8V138.3H340.8L341.3 137.9L341.6 137.3V129.6C341.617 128.733 341.617 127.867 341.6 127C341.6 126.7 341.4 126.5 341.1 126.5L339.7 126.4V125.7C340.963 125.668 342.212 125.432 343.4 125V136Z" fill="#9A565A"/>
<path d="M351.5 136V137.2C351.5 137.5 351.7 137.7 351.8 137.9L352.4 138.2L353.4 138.3V139H347.8V138.3H348.8L349.4 137.9L349.6 137.3L349.7 136.3V129.6C349.717 128.733 349.717 127.867 349.7 127C349.6 126.7 349.4 126.5 349.1 126.5L347.7 126.4V125.7C348.997 125.679 350.281 125.442 351.5 125V136Z" fill="#9A565A"/>
<path class="evenodd" d="M341.6 137.3L341.3 137.9L341.2 138L340.8 138.2L339.8 138.3V139H345.3V138.3C344.967 138.333 344.632 138.333 344.3 138.3L343.9 138L343.8 137.9C343.6 137.7 343.5 137.5 343.5 137.2V125C342.78 125.22 342.044 125.387 341.3 125.5L339.7 125.7V126.4C340.239 126.408 340.775 126.475 341.3 126.6C341.4 126.6 341.6 126.8 341.6 127V137.2V137.3ZM341.4 124.5L343.1 124L344.4 123.6V136C344.41 136.368 344.444 136.736 344.5 137.1L345.3 137.2H346.3V139.9H338.8V137.2H339.8C340.066 137.227 340.334 137.227 340.6 137.2V137V129.5V127.8V127.3H338.7V124.7H339.7L341.4 124.4V124.5ZM349.6 137.3C349.6 137.5 349.6 137.7 349.4 137.9L349.2 138L348.8 138.2L347.8 138.3V139H353.3V138.3C352.967 138.333 352.632 138.333 352.3 138.3L351.9 138L351.8 137.9L351.5 137.2V125C350.812 125.216 350.111 125.383 349.4 125.5H349.3L347.7 125.7V126.4C348.239 126.408 348.775 126.475 349.3 126.6C349.5 126.6 349.6 126.8 349.6 127V127.9L349.7 129.6V137.2L349.6 137.3ZM349.4 124.5L351.1 124L352.5 123.6V136C352.477 136.366 352.477 136.734 352.5 137.1L353.4 137.2H354.4V139.9H346.8V137.2H347.8C348.066 137.227 348.334 137.227 348.6 137.2V137L348.7 136.1V129.5V127.8V127.3H346.7V124.7H347.7L349.4 124.4V124.5Z" fill="#FEFEFE"/>
<path class="evenodd" d="M134 79.1L139 82L134 84.9V82.5H125V81.5H134V79.1Z" fill="#AC6970"/>
<path d="M126.5 84.3C126.5 85 126.5 85.6 126.2 86.3L125.2 87.8C124.753 88.2454 124.223 88.5982 123.639 88.8385C123.056 89.0787 122.431 89.2015 121.8 89.2C121.101 89.2109 120.412 89.0385 119.8 88.7C119.3 88.4 118.8 88 118.4 87.4C118 86.9 117.7 86.2 117.4 85.4C117.036 84.0178 116.963 82.5749 117.187 81.1632C117.411 79.7515 117.926 78.4018 118.7 77.2C119.215 76.54 119.862 75.995 120.6 75.6C121.3 75.2 122 75 122.8 75L124 75.1L125 75.5L125.7 76.1L125.9 76.8C125.9 77.1 125.9 77.3 125.6 77.5C125.4 77.6523 125.15 77.7236 124.9 77.7C124.6 77.7 124.3 77.7 124.2 77.4C124.056 77.207 123.923 77.0067 123.8 76.8L123.3 76.1C123.1 75.9 122.7 75.8 122.3 75.8C121.9 75.8 121.5 75.9 121.1 76.2L120.2 77.4C119.9 77.9 119.7 78.4 119.6 79.2L119.4 81.4C119.8 80.9 120.2 80.5 120.7 80.3C121.1 80 121.7 79.9 122.3 79.9C123.167 79.8692 124.021 80.114 124.739 80.5991C125.458 81.0843 126.004 81.7848 126.3 82.6L126.5 84.3ZM119.3 83.9C119.3 86.9 120.2 88.4 121.8 88.4C122.7 88.4 123.3 88.1 123.7 87.4C124.1 86.8 124.3 85.8 124.3 84.4C124.3 83.2 124.1 82.3 123.7 81.7C123.3 81 122.7 80.7 122 80.7C121.5 80.7 121 80.9 120.6 81.3C120.2 81.6 119.7 82.3 119.3 83V84V83.9Z" fill="#9A565A"/>
<path class="evenodd" d="M123.3 87.8C123.5 87.8 123.6 87.6 123.7 87.4C124.1 86.8 124.3 85.8 124.3 84.4C124.3 83.2 124.1 82.3 123.7 81.7C123.535 81.3937 123.29 81.1385 122.99 80.9621C122.69 80.7858 122.348 80.6951 122 80.7L121 80.9L120.6 81.3L120 81.9C119.733 82.2441 119.499 82.6124 119.3 83V84C119.3 86 119.7 87.3 120.5 88C120.873 88.2811 121.333 88.4226 121.8 88.4C122.4 88.4 122.8 88.2 123.2 87.9H123.3V87.8ZM118.3 87.4L117.4 85.4C117.036 84.0178 116.963 82.575 117.187 81.1632C117.411 79.7515 117.926 78.4018 118.7 77.2C119.223 76.5477 119.868 76.0041 120.6 75.6C121.102 75.2874 121.663 75.0816 122.248 74.9956C122.833 74.9096 123.429 74.9451 124 75.1L125 75.5L125.7 76.1L125.9 76.8C125.9 77.1 125.9 77.3 125.6 77.5C125.4 77.6523 125.15 77.7237 124.9 77.7C124.6 77.7 124.3 77.7 124.2 77.4C124.056 77.207 123.923 77.0068 123.8 76.8C123.62 76.4911 123.382 76.2195 123.1 76L122.8 75.8H122.3C122.061 75.7928 121.823 75.8333 121.6 75.9192C121.376 76.005 121.173 76.1345 121 76.3L120.5 76.9L120.2 77.4C119.811 78.1815 119.573 79.0299 119.5 79.9C119.434 80.3973 119.401 80.8984 119.4 81.4C119.681 81.0182 120.018 80.681 120.4 80.4L120.7 80.3C121.185 80.0198 121.74 79.8812 122.3 79.9C122.881 79.8868 123.459 79.9887 124 80.2C124.5 80.4 125 80.7 125.3 81.2C125.7 81.5 126 82 126.3 82.6L126.5 84.3C126.5 85 126.5 85.6 126.2 86.3L125.2 87.8C124.753 88.2454 124.223 88.5983 123.639 88.8385C123.056 89.0787 122.431 89.2016 121.8 89.2C121.128 89.2099 120.464 89.0502 119.869 88.7356C119.275 88.421 118.77 87.9616 118.4 87.4H118.3ZM124 89.7C123.277 90.0257 122.493 90.1941 121.7 90.1941C120.907 90.1941 120.123 90.0257 119.4 89.7C118.7 89.2 118.1 88.7 117.6 88C117.1 87.4 116.7 86.6 116.5 85.8C116.111 84.278 116.043 82.6915 116.301 81.1419C116.559 79.5922 117.138 78.1135 118 76.8C118.524 76.0042 119.204 75.3236 120 74.8C121 74.2 121.8 74 122.8 74C123.735 73.9794 124.662 74.1852 125.5 74.6C125.9 74.8 126.2 75.1 126.5 75.5C126.8 75.9 126.9 76.3 126.9 76.8C126.914 77.0665 126.873 77.3329 126.777 77.5821C126.682 77.8313 126.535 78.0576 126.346 78.2463C126.158 78.435 125.931 78.5818 125.682 78.6772C125.433 78.7726 125.166 78.8144 124.9 78.8C124.4 78.8 123.8 78.6 123.4 78C123.218 77.7434 123.051 77.4763 122.9 77.2L122.6 76.8H122.3C122.1 76.8 122 76.8 121.8 77C121.5 77.2 121.3 77.4 121.1 77.9L120.6 79.2C121.86 78.7462 123.249 78.8065 124.465 79.3679C125.681 79.9292 126.628 80.9465 127.1 82.2C127.678 83.6097 127.678 85.1903 127.1 86.6C126.8 87.3 126.4 87.9 125.9 88.5C125.3 89 124.7 89.5 124 89.7ZM120.3 83.3C120.7 82.6 121 82.3 121.3 82C121.5 81.8 121.7 81.7 122 81.7C122.4 81.7 122.7 81.9 122.9 82.2C123.1 82.6 123.3 83.2 123.3 84.4C123.3 85.7 123.1 86.4 122.8 86.9C122.6 87.2 122.4 87.4 121.8 87.4C121.6 87.4 121.4 87.4 121.3 87.2C121.1 87.2 121 87 120.8 86.8C120.6 86.2 120.3 85.3 120.3 83.9V83.3Z" fill="#FEFEFE"/>
<path class="evenodd" d="M294 36.9L289 34L294 31.1V33.5H303V34.5H294V36.9Z" fill="#AC6970"/>
<path d="M309 38V39.2C309 39.5 309.2 39.7 309.3 39.9L309.9 40.2L310.9 40.3V41H305.3V40.3H306.3L306.9 39.9L307.1 39.3L307.2 38.3V31.6C307.217 30.7334 307.217 29.8666 307.2 29C307.1 28.7 306.9 28.6 306.6 28.5L305.2 28.4V27.7C306.497 27.6789 307.781 27.4423 309 27V38Z" fill="#9A565A"/>
<path d="M318.5 27C319.199 26.9891 319.888 27.1615 320.5 27.5C321.2 27.9 321.7 28.4 322.2 29C322.7 29.7 323.1 30.5 323.4 31.3C323.806 32.6059 323.908 33.987 323.7 35.3385C323.493 36.6901 322.979 37.9765 322.2 39.1C321.7 39.8 321.2 40.3 320.5 40.6C319.874 40.9503 319.168 41.1343 318.45 41.1343C317.732 41.1343 317.026 40.9503 316.4 40.6C315.7 40.3 315.2 39.8 314.7 39.1C313.605 37.6683 313.04 35.9015 313.1 34.1C313.1 33.1 313.3 32.2 313.5 31.3C313.772 30.4732 314.178 29.6963 314.7 29C315.2 28.4 315.7 27.9 316.4 27.5C317.011 27.1615 317.701 26.9891 318.4 27H318.5ZM318.5 40.3C318.9 40.3 319.3 40.3 319.7 40C320.1 39.8 320.4 39.5 320.7 39C320.9 38.6 321.1 38 321.2 37.2C321.4 36.4 321.4 35.4 321.4 34.2C321.4 33 321.4 32 321.2 31.2L320.7 29.2C320.4 28.7 320.1 28.4 319.7 28.2C319.3 27.9 318.9 27.8 318.5 27.8C318 27.8 317.5 27.9 317.2 28.1C316.8 28.4 316.5 28.7 316.2 29.2C315.936 29.8383 315.767 30.5123 315.7 31.2C315.394 33.1883 315.394 35.2117 315.7 37.2C315.8 37.9 316 38.6 316.3 39C316.5 39.5 316.8 39.8 317.2 40C317.6 40.2 318 40.3 318.5 40.3Z" fill="#9A565A"/>
<path class="evenodd" d="M307.1 39.3C307.1 39.5 307.1 39.7 306.9 39.9L306.7 40L306.3 40.2L305.3 40.3V41H310.8V40.3C310.467 40.3334 310.132 40.3334 309.8 40.3L309.4 40L309.3 39.9L309 39.2V27C307.767 27.3909 306.491 27.6261 305.2 27.7V28.4C305.739 28.4074 306.276 28.4744 306.8 28.6C307 28.6 307.1 28.8 307.1 29V29.9L307.2 31.6V39.2L307.1 39.3ZM306.9 26.5L308.6 26L310 25.6V38C309.977 38.3663 309.977 38.7337 310 39.1L310.9 39.2H311.9V42H304.3V39.3H305.3C305.566 39.3274 305.834 39.3274 306.1 39.3V39L306.2 38.1V31.5V29.8V29.3C305.867 29.2814 305.533 29.2814 305.2 29.3H304.2V26.7H305.2L306.9 26.4V26.5ZM320.7 27.6C321.3 28 321.7 28.5 322.2 29C322.7 29.7 323.1 30.5 323.4 31.3C323.806 32.6058 323.908 33.987 323.7 35.3385C323.493 36.69 322.979 37.9764 322.2 39.1C321.672 39.812 320.988 40.3936 320.2 40.8C319.548 41.1055 318.829 41.2384 318.111 41.1859C317.393 41.1334 316.7 40.8972 316.1 40.5C315.6 40.1 315.1 39.7 314.7 39.1C313.605 37.6682 313.04 35.9014 313.1 34.1C313.1 33.1 313.3 32.2 313.5 31.3C313.772 30.4731 314.177 29.6962 314.7 29C315.223 28.2829 315.908 27.7002 316.7 27.3C317.245 27.0347 317.844 26.8968 318.45 26.8968C319.056 26.8968 319.655 27.0347 320.2 27.3C320.373 27.3888 320.54 27.489 320.7 27.6ZM317.2 28.1C317.053 28.1809 316.919 28.2819 316.8 28.4L316.3 29.2C316.001 29.8329 315.799 30.5071 315.7 31.2C315.394 33.1882 315.394 35.2117 315.7 37.2C315.8 37.9 316 38.6 316.3 39C316.448 39.3017 316.652 39.573 316.9 39.8L317.2 40C317.6 40.2 318 40.3 318.5 40.3C318.9 40.3 319.3 40.3 319.7 40L320 39.8L320.1 39.7L320.6 39C320.9 38.6 321.1 38 321.2 37.2C321.4 36.4 321.4 35.4 321.4 34.2C321.4 33 321.4 32 321.2 31.2L320.7 29.2C320.52 28.8911 320.282 28.6195 320 28.4L319.7 28.1L318.5 27.8C318 27.8 317.5 27.9 317.2 28.1ZM316.7 37C316.7 37.7 317 38.2 317.1 38.6C317.3 38.9 317.5 39.1 317.7 39.1L318.5 39.3C318.8 39.3 319 39.3 319.2 39.1C319.4 39.1 319.6 38.9 319.8 38.6L320.2 37C320.4 36.3 320.4 35.4 320.4 34.2C320.4 33 320.4 32.1 320.2 31.3C320.2 30.6 320 30 319.8 29.7C319.6 29.3 319.4 29.1 319.2 29L318.5 28.8C318.2 28.8 317.9 28.8 317.7 29C317.5 29.1 317.3 29.3 317.2 29.7C317 30 316.8 30.6 316.7 31.3C316.409 33.1888 316.409 35.1111 316.7 37ZM323 39.8C322.5 40.5 321.8 41.1 321 41.5C320.221 41.938 319.343 42.1681 318.45 42.1681C317.557 42.1681 316.678 41.938 315.9 41.5C315.1 41.1 314.5 40.5 313.9 39.8C312.746 38.1588 312.119 36.2059 312.1 34.2C312.1 33.1 312.3 32 312.6 31C312.899 30.1036 313.338 29.2599 313.9 28.5C314.5 27.7 315.1 27.1 315.9 26.7C316.672 26.2423 317.553 26.0008 318.45 26.0008C319.347 26.0008 320.228 26.2423 321 26.7C321.8 27.1 322.5 27.7 323 28.5C323.6 29.2 324 30.1 324.3 31C324.761 32.4533 324.883 33.9927 324.658 35.5006C324.433 37.0085 323.866 38.4449 323 39.7V39.8Z" fill="#FEFEFE"/>
<path class="evenodd" d="M380 36.9L375 34L380 31.1V33.5H389V34.5H380V36.9Z" fill="#AC6970"/>
<path d="M395 38V39.2C395 39.5 395.2 39.7 395.3 39.9L395.9 40.2L396.9 40.3V41H391.3V40.3H392.3L392.9 39.9L393.1 39.3L393.2 38.3V31.6C393.217 30.7334 393.217 29.8666 393.2 29C393.1 28.7 392.9 28.5 392.6 28.5L391.2 28.4V27.7C392.497 27.6789 393.781 27.4423 395 27V38Z" fill="#9A565A"/>
<path d="M401.6 39.2H405.9L406.5 38.8L406.9 38.2L407.3 37.2H408L407.3 41H398.9V40.4C400.851 38.6173 402.688 36.7135 404.4 34.7C405.272 33.5512 405.73 32.1417 405.7 30.7C405.7 29.9 405.5 29.1 405.1 28.6C404.6 28.1 404.1 27.8 403.3 27.8C402.6 27.8 402 28 401.5 28.5C401.1 29 400.8 29.5 400.8 30.3C400.8 31 401 31.5 401.4 31.9C401.7 32.2 402.2 32.4 402.8 32.4C402.8 32.7 402.6 33 402.4 33.1C402.1 33.3 401.8 33.4 401.4 33.4C401.075 33.4004 400.754 33.3289 400.46 33.1906C400.166 33.0523 399.907 32.8506 399.7 32.6C399.25 32.0356 399.035 31.3191 399.1 30.6C399.1 30.1 399.2 29.6 399.4 29.2C399.904 28.2806 400.72 27.5714 401.7 27.2C402.865 26.7882 404.135 26.7882 405.3 27.2L406.7 28C407.1 28.4 407.4 28.8 407.6 29.3C407.8 29.7 407.9 30.3 407.9 30.8C407.9 31.6 407.7 32.3 407.4 33C407.1 33.8 406.6 34.5 406 35.1C404.595 36.5364 403.091 37.8729 401.5 39.1V39.2H401.6Z" fill="#9A565A"/>
<path class="evenodd" d="M393.1 39.3C393.1 39.5 393.1 39.7 392.9 39.9L392.7 40L392.3 40.2L391.3 40.3V41H396.8V40.3C396.467 40.3334 396.132 40.3334 395.8 40.3L395.4 40L395.3 39.9L395 39.2V27C394.312 27.2156 393.611 27.3826 392.9 27.5H392.8L391.2 27.7V28.4C391.739 28.4074 392.276 28.4744 392.8 28.6C393 28.6 393.1 28.8 393.1 29V29.9L393.2 31.6V39.2L393.1 39.3ZM392.9 26.5L394.6 26L396 25.6V38C395.977 38.3663 395.977 38.7337 396 39.1L396.9 39.2H397.9V42H390.3V39.3H391.3C391.566 39.3274 391.834 39.3274 392.1 39.3V39L392.2 38.1V31.5V29.8V29.3C391.867 29.2814 391.533 29.2814 391.2 29.3H390.2V26.7H391.2L392.9 26.4V26.5ZM400.5 39C399.973 39.4744 399.44 39.9411 398.9 40.4V41H407.3L408 37.2H407.3C407.145 37.6847 406.944 38.1535 406.7 38.6L406.5 38.8L405.9 39.2H401.6L402.6 38.4L402.7 38.2C403.854 37.2609 404.955 36.2594 406 35.2C406.6 34.5 407 33.8 407.4 33C407.7 32.3 407.9 31.6 407.9 30.8L407.6 29.3C407.4 28.8 407.1 28.3 406.6 28C406.039 27.4878 405.346 27.1416 404.6 27C403.367 26.7844 402.097 26.9961 401 27.6C400.327 27.9727 399.773 28.5271 399.4 29.2C399.2 29.6 399.1 30.2 399.1 30.7C399.1 31.1 399.1 31.4 399.3 31.7C399.3 32.1 399.5 32.4 399.7 32.7L400.5 33.2C400.943 33.3853 401.435 33.4204 401.9 33.3C402.1 33.3 402.2 33.3 402.4 33.1C402.6 33 402.8 32.7 402.8 32.4C402.5 32.4 402.1 32.4 401.8 32.2L401.4 31.9C401 31.5 400.8 30.9 400.8 30.3C400.776 29.9281 400.835 29.5554 400.973 29.2094C401.112 28.8633 401.326 28.5526 401.6 28.3L402.1 28.1C402.556 27.8457 403.081 27.7408 403.6 27.8C403.8 27.8 404.1 27.8 404.3 28L405.1 28.6C405.5 29.1 405.7 29.9 405.7 30.8C405.73 32.2417 405.272 33.6512 404.4 34.8C403.423 36.1681 402.281 37.4107 401 38.5L400.5 39ZM402.2 29.2C402 29.4 401.8 29.8 401.8 30.3C401.8 30.8 402 31 402.1 31.2C402.2 31.3 402.4 31.4 402.8 31.4H404.1L403.8 32.6C403.7 33.2 403.4 33.6 402.9 33.9C402.5 34.3 401.9 34.4 401.4 34.4C400.9 34.4 400.4 34.3 400.1 34.1C399.6 33.9 399.3 33.6 399 33.3L398.3 32.1C397.929 30.9828 398.001 29.766 398.5 28.7C399.136 27.5462 400.165 26.6591 401.4 26.2C402.76 25.7275 404.24 25.7275 405.6 26.2C406.236 26.4469 406.814 26.8212 407.3 27.3C407.8 27.7 408.3 28.3 408.5 28.9C408.7 29.5 408.9 30.1 408.9 30.9C408.9 31.7 408.7 32.6 408.3 33.5C407.9 34.3 407.4 35 406.8 35.8L404.7 37.9L404.3 38.2H405.8L406 37.8L406.4 36.8L406.6 36.2H409.2L408.2 42H397.9V40L398.3 39.7C400.178 37.9771 401.948 36.1403 403.6 34.2L404.5 32.4L404.7 30.8C404.7 30 404.5 29.5 404.3 29.2C404 28.9 403.8 28.8 403.3 28.8C402.8 28.8 402.5 28.9 402.3 29.2H402.2Z" fill="#FEFEFE"/>
<path class="evenodd" d="M493 51L487.5 52.5L489 46.9L490.7 48.6L509.7 29.6L510.4 30.4L491.4 49.4L493 51Z" fill="#AC6970"/>
<path d="M516 32V33.2C516 33.5 516.2 33.7 516.3 33.9L516.9 34.2L517.9 34.3V35H512.3V34.3H513.3L513.9 33.9L514.1 33.3L514.2 32.3V25.6C514.217 24.7334 514.217 23.8666 514.2 23C514.1 22.7 513.9 22.6 513.6 22.5L512.2 22.4V21.7C513.497 21.6789 514.781 21.4423 516 21V32Z" fill="#9A565A"/>
<path d="M519.4 30.9L525.7 20.9H526.3V30.9H527.1L527.6 30.6C527.8 30.5 527.8 30.3 527.9 30.1V29.3H528.6V33.3H527.9V32.5C527.9 32.3 527.8 32.1 527.6 32C527.461 31.8776 527.285 31.8069 527.1 31.8C526.834 31.7787 526.566 31.7787 526.3 31.8V33.1L526.5 33.8C526.6 34 526.8 34.1 526.9 34.1L527.7 34.2V34.9H522.7V34.2H523.6L524.1 33.8L524.4 33.2V31.7H519.4V30.7V30.9ZM524.4 24.5L520.3 30.9H524.5V24.5H524.4Z" fill="#9A565A"/>
<path class="evenodd" d="M514.1 33.3C514.1 33.5 514.1 33.7 513.9 33.9L513.7 34L513.3 34.2L512.3 34.3V35H517.8V34.3C517.467 34.3334 517.132 34.3334 516.8 34.3L516.4 34L516.3 33.9L516 33.2V21C515.312 21.2156 514.611 21.3826 513.9 21.5H513.8L512.2 21.7V22.4C512.739 22.4074 513.276 22.4744 513.8 22.6C514 22.6 514.1 22.8 514.1 23V23.9L514.2 25.6V33.2L514.1 33.3ZM513.9 20.5L515.6 20L517 19.6V32C516.977 32.3663 516.977 32.7337 517 33.1L517.9 33.2H518.9V36H511.3V33.3H512.3C512.566 33.3274 512.834 33.3274 513.1 33.3V33L513.2 32.1V25.5V23.8V23.3C512.867 23.2814 512.533 23.2814 512.2 23.3H511.2V20.7H512.2L513.9 20.4V20.5ZM518.4 30.5L525 20H527.2V28.3H529.5V34.3H528.5V36H521.5V33.3H523.2L523.3 33.1V32.8H518.3V30.6L518.4 30.5ZM519.4 30.9V31.8H524.4V32.2C524.42 32.533 524.42 32.867 524.4 33.2C524.4 33.5 524.3 33.7 524.1 33.9V34L523.6 34.2C523.272 34.2752 522.936 34.3088 522.6 34.3V35H527.6V34.3C527.367 34.3248 527.133 34.3248 526.9 34.3C526.722 34.2198 526.58 34.0776 526.5 33.9L526.3 33.2C526.271 32.8339 526.271 32.4661 526.3 32.1V31.7C526.636 31.6989 526.971 31.7325 527.3 31.8L527.6 32C527.8 32.1 527.8 32.3 527.9 32.5V33.3H528.6V29.3H527.9V30.1C527.9 30.3 527.8 30.5 527.6 30.6C527.513 30.6843 527.411 30.752 527.3 30.8H527.1L526.3 30.9V21H525.7L519.4 31V30.9ZM524.4 24.5L520.3 30.9H524.5V24.5H524.4ZM522.1 29.9L523.5 27.7V30H522L522.1 29.9Z" fill="#FEFEFE"/>
<path class="evenodd" d="M173.5 117.1L178.5 120L173.5 122.9V120.5H156V119.5H173.5V117.1Z" fill="#AC6970"/>
<path d="M154.5 115H150C149.7 115 149.5 115 149.3 115.2C149.1 115.2 149 115.4 148.9 115.6L148.5 116.4L148.3 117.1H147.6L148.8 112.1H149.6L149.5 112.3V112.6C149.5 112.8 149.5 113 149.8 113L150.8 113.1H156.1V113.5C155.059 115.978 153.993 118.445 152.9 120.9C152.078 122.824 151.278 124.757 150.5 126.7L150.1 127.1H149.7C149.5 127.1 149.3 127.1 149.1 126.9C148.978 126.761 148.907 126.585 148.9 126.4V126.1L149.1 125.7C149.323 125.049 149.59 124.414 149.9 123.8C150.627 122.396 151.36 120.996 152.1 119.6L154.5 114.9V115Z" fill="#9A565A"/>
<path class="evenodd" d="M155 115.9L155.3 115.3L155.8 114.1L155.9 113.9L156.1 113.5V113.1H149.8L149.6 113V112.9L149.5 112.6C149.484 112.434 149.484 112.266 149.5 112.1H148.8L147.6 117.1H148.3L148.5 116.4L148.9 115.6L149 115.4L149.3 115.2L150 115H154.5L152.1 119.6C151.025 121.763 149.959 123.929 148.9 126.1V126.4C148.9 126.6 148.9 126.8 149.1 126.9L149.7 127.2L150.1 127.1L150.5 126.7L151 125.9L151.6 124.6C152.5 122.346 153.366 120.079 154.2 117.8L154.7 116.7L155.1 115.9H155ZM156 116.3L155.2 118.2C153.986 120.852 152.885 123.555 151.9 126.3L151.4 127.3L150.6 128L149.6 128.2C149.2 128.2 148.8 128 148.4 127.7V127.6C148.1 127.3 147.9 126.9 147.9 126.4V126L148.1 125.4L148.4 124.5L149 123.4C149.728 121.997 150.461 120.597 151.2 119.2L152.9 115.9H150.2L149.8 116V116.1L149.5 116.7L148.9 118.1H146.3L148.1 111.1H151.1L150.6 112.1H157.1V113.9L156 116.3Z" fill="#FEFEFE"/>
<path class="evenodd" d="M272 86.2L276.5 82.5L277.5 88.2L275.3 87.4L261.5 125.2L260.5 124.8L274.3 87L272.1 86.2H272Z" fill="#AC6970"/>
<path d="M253 122.8C253 122.1 253.1 121.5 253.4 120.9C253.755 120.021 254.363 119.268 255.146 118.734C255.929 118.2 256.852 117.91 257.8 117.9C258.459 117.904 259.109 118.059 259.698 118.354C260.288 118.649 260.801 119.075 261.2 119.6L262.2 121.6C262.679 123.441 262.645 125.378 262.1 127.2C261.81 128.131 261.371 129.01 260.8 129.8C260.3 130.6 259.7 131.1 259 131.6C258.3 132 257.6 132.2 256.8 132.2C256.038 132.203 255.286 132.032 254.6 131.7L253.9 131.1C253.7 130.8 253.7 130.6 253.7 130.3C253.7 130.1 253.7 129.8 253.9 129.7C254.1 129.5 254.3 129.4 254.6 129.4C255 129.4 255.2 129.5 255.4 129.7L255.8 130.4L256.3 131.1C256.5 131.3 256.8 131.4 257.3 131.4C257.7 131.4 258.1 131.2 258.4 130.9C258.8 130.6 259.1 130.3 259.4 129.7L260 128L260.2 125.7C259.862 126.192 259.417 126.602 258.9 126.9C258.4 127.2 257.9 127.3 257.3 127.3C256.433 127.331 255.579 127.086 254.861 126.601C254.142 126.116 253.596 125.415 253.3 124.6L253 122.8ZM260.2 123.2C260.2 120.2 259.4 118.8 257.7 118.8C257.338 118.788 256.978 118.874 256.661 119.051C256.344 119.227 256.081 119.486 255.9 119.8C255.5 120.4 255.3 121.4 255.3 122.8C255.3 123.9 255.5 124.8 255.9 125.5C256.2 126.1 256.8 126.4 257.5 126.4C258.1 126.4 258.5 126.2 259 125.9C259.4 125.5 259.8 124.9 260.2 124.1V123.2Z" fill="#9A565A"/>
<path class="evenodd" d="M252.5 120.5C253.085 119.157 254.157 118.085 255.5 117.5C256.2 117.1 257 117 257.8 117C258.614 117.004 259.417 117.195 260.145 117.559C260.874 117.924 261.508 118.451 262 119.1C262.5 119.8 262.8 120.5 263 121.4C263.4 122.3 263.5 123.2 263.5 124.2C263.5 125.4 263.3 126.5 263 127.6C262.7 128.6 262.2 129.6 261.6 130.4C261 131.2 260.3 131.9 259.5 132.4C258.7 132.9 257.7 133.2 256.8 133.2C256.3 133.2 255.8 133.2 255.3 133L254.1 132.5C253.7 132.3 253.3 132 253.1 131.7C252.8 131.3 252.7 130.8 252.7 130.3C252.7 129.9 252.8 129.3 253.2 129C253.569 128.623 254.072 128.408 254.6 128.4C255.2 128.4 255.8 128.6 256.2 129.1L256.7 129.9C256.783 130.045 256.884 130.18 257 130.3H257.3L257.8 130.2C258 130 258.3 129.7 258.5 129.2L258.9 128C258.4 128.2 257.9 128.3 257.3 128.3C256.59 128.313 255.885 128.177 255.231 127.901C254.577 127.626 253.987 127.217 253.5 126.7C253 126.2 252.7 125.7 252.5 125C252.2 124.3 252 123.6 252 122.8C252 122 252.2 121.2 252.5 120.5ZM260 128C259.81 128.821 259.471 129.601 259 130.3C258.827 130.525 258.625 130.727 258.4 130.9C258.1 131.2 257.7 131.4 257.3 131.4C257.134 131.421 256.966 131.421 256.8 131.4C256.653 131.364 256.517 131.296 256.4 131.2L256.3 131.1C256.101 130.892 255.932 130.656 255.8 130.4L255.4 129.7C255.2 129.5 255 129.4 254.6 129.4C254.336 129.404 254.085 129.512 253.9 129.7C253.77 129.873 253.7 130.084 253.7 130.3C253.7 130.6 253.7 130.8 253.9 131.1L254.6 131.7C255.277 132.055 256.036 132.227 256.8 132.2C257.54 132.184 258.263 131.977 258.9 131.6C259.664 131.155 260.315 130.539 260.8 129.8C261.327 129.034 261.732 128.19 262 127.3C262.545 125.478 262.579 123.541 262.1 121.7C261.9 120.9 261.6 120.3 261.1 119.7C260.8 119.2 260.3 118.7 259.7 118.4C258.833 118.025 257.873 117.92 256.946 118.098C256.018 118.276 255.166 118.73 254.5 119.4C253.614 120.252 253.09 121.412 253.034 122.64C252.978 123.868 253.395 125.071 254.2 126C254.626 126.439 255.141 126.782 255.71 127.006C256.279 127.23 256.889 127.33 257.5 127.3C258.08 127.259 258.636 127.051 259.1 126.7C259.3 126.7 259.4 126.5 259.5 126.4L260.1 125.7C260.126 126.468 260.092 127.237 260 128ZM259 119.2C258.654 118.94 258.233 118.8 257.8 118.8C257.2 118.8 256.7 118.9 256.3 119.2L255.9 119.7C255.5 120.4 255.3 121.4 255.3 122.7C255.3 123.9 255.5 124.8 255.9 125.5C256.1 125.8 256.4 126.1 256.7 126.2C256.95 126.322 257.222 126.39 257.5 126.4C258.045 126.425 258.579 126.247 259 125.9L259.5 125.3C259.773 124.924 260.007 124.522 260.2 124.1V123.2C260.2 121.2 259.8 119.9 259.1 119.2H259ZM259.2 123.9V123.2C259.2 121.8 259 120.9 258.7 120.4C258.6 120.1 258.4 120 258.3 119.9L257.7 119.8C257.2 119.8 256.9 119.9 256.7 120.3C256.5 120.7 256.3 121.4 256.3 122.7C256.3 123.9 256.5 124.5 256.7 124.9C256.9 125.3 257.1 125.4 257.5 125.4C257.9 125.4 258.1 125.4 258.4 125.1L259.2 123.9Z" fill="#FEFEFE"/>
<path d="M69.1999 135.1C69.1999 134.1 68.9999 133.4 68.5999 132.8C68.4038 132.538 68.1461 132.327 67.8497 132.188C67.5533 132.048 67.2272 131.984 66.8999 132C66.5273 132.188 66.1173 132.291 65.6999 132.3C65.4944 132.33 65.2847 132.295 65.0999 132.2C65.0039 132.159 64.9233 132.088 64.8695 131.998C64.8157 131.909 64.7914 131.804 64.7999 131.7C64.7999 131.6 64.8999 131.4 65.0999 131.4L65.5999 131.2H66.1999L66.6999 131.4C67.3999 131.4 67.8999 131.1 68.2999 130.6C68.7284 129.912 68.9376 129.11 68.8999 128.3C68.8999 126.6 68.1999 125.7 66.6999 125.7C66.0999 125.7 65.6999 125.9 65.1999 126.2C64.8999 126.5 64.6999 126.8 64.6999 127.4C64.6999 127.8 64.7999 128.1 65.0999 128.4C65.2999 128.6 65.5999 128.7 65.9999 128.7C65.9999 128.9 65.7999 129.1 65.4999 129.2L64.6999 129.4L63.9999 129.3L63.3999 128.9L62.9999 128.3C62.8745 128.013 62.8183 127.701 62.8356 127.388C62.853 127.075 62.9435 126.771 63.0999 126.5C63.3999 126.1 63.5999 125.9 63.9999 125.7C64.2999 125.4 64.6999 125.3 65.1999 125.1C66.2816 124.816 67.4183 124.816 68.4999 125.1L69.8999 125.8L70.6999 126.8C70.8999 127.2 70.9999 127.7 70.9999 128.2C70.9999 128.6 70.9999 129 70.7999 129.3C70.6999 129.7 70.4999 130 70.1999 130.3L69.3999 131L68.3999 131.5V131.6L69.5999 132.1L70.5999 132.9C71.0729 133.441 71.3732 134.111 71.4623 134.823C71.5514 135.536 71.4252 136.259 71.0999 136.9L70.0999 138.1L68.5999 138.9C67.955 139.112 67.2788 139.214 66.5999 139.2C65.5284 139.236 64.4745 138.92 63.5999 138.3C63.1999 138 62.8999 137.7 62.6999 137.3C62.5071 136.97 62.3892 136.603 62.3547 136.222C62.3201 135.842 62.3697 135.459 62.4999 135.1L62.9999 134.4L63.5999 133.9C63.8638 133.768 64.1549 133.699 64.4499 133.699C64.745 133.699 65.036 133.768 65.2999 133.9C65.5999 134.1 65.7999 134.3 65.7999 134.5C65.3999 134.5 64.9999 134.7 64.7999 135C64.3999 135.3 64.2999 135.7 64.2999 136.3C64.2999 136.9 64.4999 137.3 64.8999 137.8C65.3999 138.1 65.8999 138.3 66.5999 138.3C67.4999 138.3 68.0999 138.1 68.5999 137.5C68.9999 137 69.1999 136.2 69.1999 135.1Z" fill="#9A565A"/>
<path class="evenodd" d="M64.1 87.5L67 82.5L69.9 87.5H67.5V122H66.5V87.5H64.1Z" fill="#AC6970"/>
<path class="evenodd" d="M67.8001 133.4C67.7175 133.288 67.6127 133.195 67.4921 133.126C67.3716 133.057 67.2381 133.014 67.1 133C66.7813 133.143 66.4451 133.244 66.1 133.3C66.5 133.5 66.7001 133.8 66.8001 134.3L67.1 135.5H65.8001C65.7001 135.5 65.6001 135.5 65.5001 135.7C65.4001 135.7 65.3001 135.9 65.3001 136.3C65.3001 136.6 65.3 136.8 65.6 137C65.8 137.2 66.1 137.3 66.6 137.3C67.2 137.3 67.6 137.2 67.7 136.9C68 136.6 68.2 136.1 68.2 135.1C68.2 134.3 68.0001 133.7 67.8001 133.4ZM68.5001 137.5C68.3349 137.704 68.131 137.874 67.9001 138C67.6001 138.2 67.2 138.3 66.7 138.3C66.1 138.3 65.7001 138.3 65.3001 138L64.9001 137.8C64.7012 137.605 64.5452 137.372 64.4419 137.113C64.3385 136.855 64.2902 136.578 64.3001 136.3C64.2763 136.021 64.3181 135.739 64.4223 135.479C64.5265 135.218 64.6901 134.986 64.9001 134.8C65.1822 134.575 65.5405 134.467 65.9001 134.5L65.3001 133.9C65.0242 133.752 64.7127 133.682 64.4001 133.7C64.2001 133.7 63.9 133.7 63.6 133.9L63.0001 134.4C62.6105 134.842 62.397 135.411 62.4001 136C62.4001 136.4 62.4001 136.9 62.7001 137.3C62.9001 137.7 63.2 138 63.6 138.3C64.0009 138.564 64.4392 138.766 64.9001 138.9C65.5001 139.1 66 139.2 66.6 139.2C67.2785 139.208 67.9539 139.107 68.6 138.9C69.2 138.7 69.6 138.4 70.1 138.1L71.1 136.8C71.3 136.4 71.4001 135.8 71.4001 135.3C71.4419 134.428 71.1566 133.572 70.6 132.9L69.6 132.1C69.2251 131.879 68.8213 131.71 68.4001 131.6V131.5C68.6053 131.411 68.8056 131.311 69.0001 131.2C69.8172 130.815 70.4597 130.137 70.8001 129.3C70.9798 128.908 71.0729 128.481 71.0729 128.05C71.0729 127.619 70.9798 127.192 70.8001 126.8L71.6 126.4C71.9 126.9 72.0001 127.5 72.0001 128.2C72.0001 128.7 72 129.2 71.7 129.7L71.0001 129.4L71.7 129.7C71.6 130.1 71.3001 130.6 71.0001 130.9L70.4001 131.5L71.4001 132.3L72.1 133.6L71.3001 134L72.1 133.6C72.3 134.2 72.4001 134.7 72.4001 135.3C72.4001 136 72.3001 136.7 72.0001 137.3C71.7001 137.9 71.3 138.4 70.7 138.8C70.2 139.3 69.6001 139.6 68.9001 139.8C68.1929 140.05 67.4501 140.185 66.7 140.2C65.3898 140.288 64.0877 139.936 63.0001 139.2V139.1C62.5001 138.7 62.1001 138.3 61.8001 137.8C61.5525 137.344 61.4064 136.84 61.3719 136.322C61.3373 135.804 61.4152 135.285 61.6 134.8C61.7 134.4 62.0001 134 62.2001 133.8C62.5001 133.4 62.8001 133.1 63.2001 133C63.5001 132.8 63.9 132.7 64.2 132.7C64 132.5 63.8001 132.1 63.8001 131.7C63.8001 131.2 64.1 130.7 64.6 130.5L65.1 131.3C64.9 131.4 64.8001 131.6 64.8001 131.7C64.8001 131.9 64.9 132.1 65.1 132.2L65.7 132.3C65.8989 132.33 66.1012 132.33 66.3001 132.3C66.51 132.221 66.7111 132.121 66.9001 132H67.3001C67.5935 132.071 67.867 132.208 68.1 132.4C68.2871 132.506 68.4559 132.641 68.6 132.8C69 133.4 69.2 134.2 69.2 135.1C69.2 136.1 69.0001 137 68.5001 137.5ZM67.3001 131.3C67.5001 131.3 67.6 131.3 67.7 131.1C67.931 130.974 68.1349 130.804 68.3001 130.6V130.4C68.7001 129.9 68.9001 129.1 68.9001 128.3C68.9001 127.3 68.6 126.5 68.1 126.1C67.7 125.9 67.3 125.7 66.7 125.7C66.2 125.7 65.7001 125.8 65.4001 126.1H65.3001C64.9001 126.5 64.7 126.9 64.7 127.4C64.7 127.8 64.8 128.1 65.1 128.4C65.2218 128.509 65.3644 128.591 65.5191 128.643C65.6739 128.694 65.8375 128.714 66.0001 128.7C66.0001 128.9 65.8001 129.1 65.5001 129.2L64.8001 129.4L64.0001 129.3L63.4001 128.9L63.0001 128.3C62.8747 128.013 62.8184 127.701 62.8357 127.388C62.8531 127.075 62.9436 126.771 63.1 126.5C63.4 126.1 63.6001 125.9 64.0001 125.7C64.3589 125.427 64.766 125.223 65.2 125.1C66.2817 124.816 67.4184 124.816 68.5001 125.1L69.9001 125.8L70.7 126.8L71.7 126.4L70.5001 125C70.0001 124.7 69.5001 124.4 68.8001 124.2C68.2001 124 67.5001 124 66.8001 124C66.1001 124 65.5001 124 64.9001 124.2L63.4001 124.8C63.0001 125.1 62.6001 125.5 62.4001 125.9H62.3001C62.0574 126.303 61.9129 126.757 61.8782 127.226C61.8434 127.695 61.9194 128.166 62.1 128.6L63.1 128.3L62.1 128.6C62.3 129 62.4001 129.3 62.7001 129.6L63.6 130.2L64.7 130.4H64.6L65.1 131.4L65.6 131.2H66.1C66.3046 131.252 66.5051 131.319 66.7 131.4H67.3001V131.3ZM66.9001 130.4C67.1001 130.4 67.3001 130.3 67.4001 130C67.7001 129.6 67.9001 129 67.9001 128.3C67.9001 127.5 67.7 127.2 67.6 127C67.5 126.9 67.3 126.7 66.7 126.7C66.3 126.7 66.0001 126.8 65.9001 127C65.8001 127 65.7 127.1 65.7 127.4V127.7H67.3001L67.0001 129C66.9001 129.5 66.5 129.9 66.1 130.1L65.9001 130.2C66.2403 130.226 66.5761 130.293 66.9001 130.4Z" fill="#FEFEFE"/>
<path class="evenodd" d="M21.1 40L24 35L26.9 40H24.5V57.5H23.5V40H21.1Z" fill="#AC6970"/>
<path class="evenodd" d="M26.9 100.5L24 105.5L21.1 100.5H23.5V83H24.5V100.5H26.9Z" fill="#AC6970"/>
<path d="M22.5 75.2H27L27.5 74.8C27.7 74.7 27.9 74.5 28 74.2L28.4 73.2H29.1L28.4 77H20V76.4C21.9511 74.6173 23.788 72.7135 25.5 70.7C26.3716 69.5512 26.8297 68.1417 26.8 66.7C26.8 65.9 26.6 65.1 26.1 64.6C25.7 64.1 25.1 63.8 24.3 63.8C23.6 63.8 23 64 22.6 64.5C22.1 65 21.9 65.5 21.9 66.3C21.9 67 22.1 67.5 22.4 67.9C22.8 68.2 23.3 68.4 23.9 68.4C23.9 68.7 23.7 69 23.4 69.1C23.2 69.3 22.9 69.4 22.4 69.4C22.0922 69.3862 21.7906 69.3078 21.515 69.17C21.2394 69.0322 20.9958 68.838 20.8 68.6C20.3496 68.0356 20.1346 67.3191 20.2 66.6C20.2 66.1 20.2 65.6 20.5 65.2C20.7 64.7 21 64.3 21.5 64L22.8 63.2C23.9647 62.7882 25.2353 62.7882 26.4 63.2L27.7 64L28.7 65.3L28.9 66.8C28.9 67.6 28.8 68.3 28.4 69C28.1 69.8 27.7 70.5 27.1 71.1L25.1 73.1L22.6 75.1V75.2H22.5Z" fill="#9A565A"/>
<path class="evenodd" d="M21.5 75C20.9728 75.4736 20.4394 75.9403 19.9 76.4V77H28.3L29 73.2H28.3C28.145 73.6847 27.9441 74.1535 27.7 74.6L27.4 74.8L26.9 75.2H22.5C24.085 73.9655 25.5882 72.6293 27 71.2C27.6 70.5 28 69.8 28.3 69C28.7 68.3 28.8 67.6 28.8 66.8C28.8 66.3 28.8 65.8 28.5 65.3C28.3 64.8 28 64.3 27.6 64C27.0389 63.4878 26.3464 63.1416 25.6 63C24.3667 62.7844 23.0967 62.9961 22 63.6C21.3303 63.9769 20.7769 64.5303 20.4 65.2C20.2 65.6 20.1 66.2 20.1 66.7L20.2 67.7L20.7 68.7L21.4 69.2C21.8727 69.4084 22.4038 69.4438 22.9 69.3C23.1 69.3 23.2 69.3 23.3 69.1C23.6 69 23.7 68.7 23.8 68.4C23.4 68.4 23.1 68.4 22.8 68.2L22.3 67.9C22 67.5 21.8 66.9 21.8 66.3C21.7758 65.9281 21.8351 65.5554 21.9735 65.2094C22.112 64.8634 22.326 64.5526 22.6 64.3L23 64.1C23.4564 63.8457 23.9809 63.7408 24.5 63.8C24.8 63.8 25 63.8 25.3 64C25.6 64.1 25.8 64.3 26 64.6C26.5 65.1 26.7 65.9 26.7 66.8C26.7297 68.2417 26.2716 69.6512 25.4 70.8C24.4227 72.1681 23.2808 73.4107 22 74.5L21.5 75ZM23.1 67.2C23.2 67.3 23.4 67.4 23.8 67.4H25L24.8 68.6C24.7 69.2 24.3 69.6 23.9 69.9C23.4 70.3 22.9 70.4 22.4 70.4C21.9 70.4 21.4 70.3 21 70.1L20 69.3C19.7 68.9 19.4 68.6 19.3 68.1C18.9292 66.9828 19.0008 65.766 19.5 64.7C20.136 63.5462 21.1651 62.6591 22.4 62.2C23.7601 61.7275 25.2399 61.7275 26.6 62.2C27.2358 62.4469 27.8143 62.8212 28.3 63.3C28.8 63.7 29.2 64.3 29.4 64.9C29.7 65.5 29.8 66.1 29.8 66.9C29.8 67.7 29.6 68.6 29.2 69.5C28.9 70.3 28.4 71 27.8 71.8L25.6 73.9L25.3 74.2H26.8L27 73.8L27.3 72.8L27.6 72.2H30L29 78H19V76L19.3 75.7C21.1778 73.9771 22.9479 72.1403 24.6 70.2L25.6 68.4L25.8 66.8C25.8 66 25.6 65.5 25.3 65.2C25.1 64.9 24.8 64.8 24.3 64.8C23.9 64.8 23.5 64.9 23.3 65.2C23.1 65.4 22.9 65.8 22.9 66.3C22.9 66.8 23 67 23.2 67.2H23.1Z" fill="#FEFEFE"/>
<path class="evenodd" d="M15 32H14V31H15V32ZM19.1 32H17.1V31H19.1V32ZM23.1 32H21.1V31H23.1V32ZM27.3 32H25.3V31H27.3V32ZM31.3 32H29.3V31H31.3V32ZM35.4 32H33.4V31H35.4V32ZM39.5 32H37.5V31H39.5V32ZM43.6 32H41.6V31H43.6V32ZM47.6 32H45.6V31H47.6V32ZM51.8 32H49.8V31H51.8V32ZM55.8 32H53.8V31H55.8V32ZM59.9 32H57.9V31H59.9V32ZM63 32H62V31H63V32Z" fill="#9A565A"/>
<path class="evenodd" d="M575.1 62L578 57L580.9 62H578.5V72.3H577.5V62H575.1Z" fill="#AC6970"/>
<path class="evenodd" d="M580.9 102L578 107L575.1 102H577.5V91.7H578.5V102H580.9Z" fill="#AC6970"/>
<path d="M574.8 86V87.2L575.2 87.9L575.7 88.2L576.7 88.3V89H571.2V88.3H572.2L572.7 87.9L573 87.3V79.6C573.017 78.7334 573.017 77.8666 573 77C573 76.7 572.8 76.5 572.5 76.5L571.1 76.4V75.7C572.363 75.668 573.613 75.4316 574.8 75V86Z" fill="#9A565A"/>
<path d="M581.5 80.3L582.3 80.1C582.623 79.991 582.96 79.9238 583.3 79.9C583.9 79.9 584.3 80 584.8 80.2C585.3 80.4 585.7 80.7 586 81.1L586.8 82.4C587.132 83.3051 587.196 84.2869 586.983 85.2273C586.77 86.1676 586.29 87.0263 585.6 87.7C585.1 88.2 584.6 88.5 583.9 88.7C582.801 89.195 581.567 89.3008 580.4 89C580.01 88.89 579.639 88.7214 579.3 88.5L578.5 87.7C578.348 87.3896 578.279 87.045 578.3 86.7C578.3 86.4 578.3 86.1 578.5 85.9L579.2 85.7C579.4 85.7 579.6 85.7 579.7 85.9C579.9 86 580 86.2 580 86.4L580.2 87C580.2 87.3 580.4 87.5 580.5 87.7L581 88.2L581.8 88.4C582.3 88.4 582.8 88.3 583.1 88.1L584.1 87.1L584.6 85.6C584.8 85 584.8 84.4 584.8 83.6C584.8 82.6 584.7 81.9 584.4 81.4C584.1 80.9 583.7 80.7 583 80.7C582.5 80.7 582 80.8 581.8 81.1C581.4 81.4 581.2 81.8 581 82.4L580.8 82.8L580.5 82.9C580.3 82.9 580.2 82.8 580.2 82.5V82.4L582 75L582.9 75.2H584.1C584.912 75.264 585.729 75.1619 586.5 74.9H586.6C586.5 75.6 586.1 76.2 585.6 76.5C585.081 76.8895 584.449 77.1 583.8 77.1H582.2L581.4 80.3H581.5Z" fill="#9A565A"/>
<path class="evenodd" d="M573 87.3L572.7 87.9L572.6 88L572.2 88.2L571.2 88.3V89H576.7V88.3C576.368 88.3334 576.033 88.3334 575.7 88.3L575.3 88L575.2 87.9C575 87.7 574.9 87.5 574.9 87.2V75C573.668 75.394 572.391 75.6293 571.1 75.7V76.4C571.639 76.4074 572.176 76.4745 572.7 76.6C572.8 76.6 573 76.8 573 77V87.2V87.3ZM572.8 74.5L574.5 74L575.8 73.6V86C575.81 86.3684 575.844 86.7358 575.9 87.1L576.7 87.2H577.4L577.3 86.6C577.3 86.1 577.4 85.6 577.7 85.2C578.1 84.8 578.7 84.6 579.2 84.6C579.6 84.6 580.1 84.6 580.4 85.1C580.7 85.3 580.9 85.6 581 85.9L581.2 86.7L581.3 87.1L581.5 87.2H582.6L583.2 86.5L583.6 85.3C583.8 84.8 583.8 84.3 583.8 83.6C583.8 82.6 583.7 82.1 583.5 81.8C583.5 81.7 583.4 81.6 583 81.6C582.7 81.6 582.5 81.6 582.4 81.8C582.172 82.023 582.001 82.2973 581.9 82.6L581.8 83L581.5 83.4C581.2 83.7 580.9 83.8 580.5 83.8C580.3 83.8 579.9 83.8 579.5 83.4C579.2 83.1 579.2 82.7 579.2 82.4V82L581.4 73.5L582.4 73.9L583.2 74.1H584.2C585.3 74.1 585.9 74.1 586.2 73.9L586.5 73.8L587.9 74L587.7 75C587.5 76 587.1 76.7 586.4 77.2C585.681 77.7403 584.8 78.0221 583.9 78H583.1L582.9 78.8C583.688 78.742 584.478 78.8794 585.2 79.2C585.8 79.5 586.3 79.9 586.7 80.3C587.2 80.8 587.5 81.3 587.7 82C588 82.6 588.1 83.3 588.1 84C588.089 84.8077 587.915 85.6049 587.589 86.3438C587.262 87.0827 586.79 87.7481 586.2 88.3C585.7 88.9 585 89.3 584.2 89.6C582.935 90.1331 581.531 90.2385 580.2 89.9H580.1C579.6 89.7416 579.127 89.5054 578.7 89.2L577.7 88.2V90H570.2V87.3H571.2C571.466 87.3274 571.734 87.3274 572 87.3V87V79.5V77.8V77.3C571.7 77.285 571.4 77.285 571.1 77.3H570.1V74.7H571.1L572.8 74.4V74.5ZM586.7 86.1C587.173 84.912 587.173 83.588 586.7 82.4C586.549 81.927 586.312 81.4861 586 81.1C585.603 80.6339 585.083 80.2877 584.5 80.1C583.859 79.8666 583.162 79.8318 582.5 80C582.15 80.0876 581.814 80.2222 581.5 80.4L582.3 77.1H583.9C584.583 77.1223 585.254 76.9106 585.8 76.5C586.102 76.2606 586.342 75.9519 586.5 75.6C586.588 75.4076 586.655 75.2065 586.7 75H586.6L585.6 75.2C584.737 75.3067 583.864 75.3067 583 75.2L582.1 75L580.1 82.4V82.5C580.1 82.8 580.3 82.9 580.5 82.9H580.8V82.6H580.9C580.941 82.4687 580.974 82.3351 581 82.2C581.135 81.915 581.303 81.6465 581.5 81.4C581.612 81.2464 581.747 81.1114 581.9 81L582.5 80.7C582.765 80.6533 583.035 80.6533 583.3 80.7C583.6 80.7 583.9 80.9 584.1 81L584.4 81.4C584.7 81.9 584.8 82.6 584.8 83.7C584.8 84.4 584.8 85 584.6 85.7C584.5 86.2 584.3 86.7 584 87.1C583.78 87.4972 583.472 87.8391 583.1 88.1C582.702 88.3159 582.253 88.4196 581.8 88.4C581.4 88.4 581.2 88.4 581 88.2C580.796 88.0756 580.625 87.9041 580.5 87.7C580.371 87.4804 580.27 87.2451 580.2 87L580 86.4C580 86.2 579.9 86 579.7 85.9C579.6 85.7 579.4 85.7 579.2 85.7C578.9 85.7 578.7 85.7 578.5 85.9L578.3 86.7C578.3 87.1 578.3 87.4 578.6 87.7C578.7 88 579 88.3 579.3 88.5L580.3 89H580.4C580.856 89.1289 581.327 89.1962 581.8 89.2C583.18 89.191 584.504 88.6543 585.5 87.7C586 87.2 586.4 86.7 586.6 86.1H586.7Z" fill="#FEFEFE"/>
<path class="evenodd" d="M118.9 49.5L116 54.5L113.1 49.5H115.5V32H116.5V49.5H118.9Z" fill="#AC6970"/>
<path class="evenodd" d="M113.3 23.4V23.5C113.3 23.8 113.3 23.9 113.6 23.9H113.9V23.6H114C114.041 23.4687 114.074 23.3351 114.1 23.2C114.235 22.915 114.403 22.6465 114.6 22.4C114.711 22.2464 114.846 22.1114 115 22L115.6 21.7C115.865 21.6532 116.135 21.6532 116.4 21.7C116.7 21.7 117 21.9 117.2 22L117.5 22.4C117.8 22.9 117.9 23.6 117.9 24.7C117.9 25.4 117.9 26 117.7 26.7C117.6 27.2 117.4 27.7 117.1 28.1C116.88 28.4971 116.572 28.8391 116.2 29.1C115.802 29.3159 115.353 29.4196 114.9 29.4C114.5 29.4 114.3 29.4 114.1 29.2C113.898 29.0727 113.727 28.9018 113.6 28.7C113.471 28.4803 113.37 28.2451 113.3 28L113.1 27.4C113.1 27.2 113 27 112.8 26.9C112.7 26.7 112.5 26.7 112.3 26.7C112 26.7 111.8 26.7 111.6 26.9L111.4 27.7C111.4 28.1 111.4 28.4 111.6 28.7L112.4 29.5L113.4 30H113.5C113.956 30.1289 114.427 30.1961 114.9 30.2C115.587 30.2055 116.268 30.0693 116.9 29.8C118.147 29.2961 119.151 28.3283 119.7 27.1C120.238 25.9378 120.31 24.6134 119.9 23.4C119.719 22.9193 119.448 22.4779 119.1 22.1C118.703 21.6339 118.183 21.2876 117.6 21.1C116.959 20.8666 116.262 20.8318 115.6 21C115.255 21.0559 114.919 21.1567 114.6 21.3L115.4 18.1H117C117.649 18.1 118.281 17.8894 118.8 17.5C119.139 17.2728 119.414 16.9631 119.6 16.6C119.688 16.4076 119.755 16.2065 119.8 16H119.7L118.7 16.2C117.837 16.3067 116.963 16.3067 116.1 16.2L115.1 16L113.3 23.4ZM116.3 15.2C116 15.2 115.8 15.2 115.6 15L114.6 14.6L112.3 23.1V23.5C112.3 23.8 112.3 24.2 112.7 24.5C113 24.8 113.4 24.9 113.7 24.9C113.957 24.9 114.208 24.824 114.421 24.6816C114.635 24.5393 114.801 24.3369 114.9 24.1L115 23.7L115.5 22.9L116.1 22.7C116.5 22.7 116.6 22.8 116.6 22.9C116.8 23.2 116.9 23.7 116.9 24.7C116.9 25.3 116.9 25.9 116.7 26.4C116.7 26.9 116.5 27.3 116.3 27.6L115.7 28.2L114.9 28.4C114.8 28.4116 114.7 28.4116 114.6 28.4L114.4 28.2C114.353 28.0704 114.319 27.9364 114.3 27.8L114.1 27C114 26.7 113.8 26.4 113.5 26.2C113.2 25.8 112.7 25.7 112.3 25.7C111.7 25.7 111.3 25.9 110.9 26.3C110.5 26.7 110.4 27.3 110.4 27.7C110.4 28.2 110.5 28.7 110.8 29.2C111 29.6 111.4 30 111.8 30.2V30.3L113.2 31L114.9 31.2C116.545 31.1976 118.125 30.5516 119.3 29.4C120.126 28.6034 120.707 27.5864 120.973 26.4697C121.239 25.3531 121.179 24.1836 120.8 23.1C120.6 22.5 120.3 21.9 119.8 21.4C119.4 21 118.9 20.6 118.3 20.4C117.593 20.0275 116.798 19.8547 116 19.9L116.2 19.1H117C117.9 19.1221 118.78 18.8403 119.5 18.3C120.2 17.8 120.5 17.1 120.8 16.2L121 15.2L119.5 14.9L119.3 15C119 15.2 118.4 15.3 117.3 15.3H116.3V15.2Z" fill="#FEFEFE"/>
<path d="M114.6 21.3L115.4 21.1C115.723 20.991 116.06 20.9238 116.4 20.9C117 20.9 117.4 21 117.9 21.2C118.4 21.4 118.8 21.7 119.1 22.1L119.9 23.4C120.232 24.3051 120.296 25.2869 120.083 26.2273C119.87 27.1676 119.39 28.0263 118.7 28.7C118.2 29.2 117.7 29.5 117 29.7C115.901 30.195 114.667 30.3008 113.5 30C113.11 29.89 112.739 29.7214 112.4 29.5L111.6 28.7C111.448 28.3896 111.379 28.045 111.4 27.7C111.4 27.4 111.4 27.1 111.6 26.9L112.3 26.7C112.5 26.7 112.7 26.7 112.8 26.9C113 27 113.1 27.2 113.1 27.4L113.3 28C113.3 28.3 113.5 28.5 113.6 28.7C113.6 28.9 113.9 29.1 114.1 29.2L114.9 29.4C115.4 29.4 115.9 29.3 116.2 29.1L117.2 28.1L117.7 26.6C117.9 26 117.9 25.4 117.9 24.6C117.9 23.6 117.8 22.9 117.5 22.4C117.2 21.9 116.8 21.7 116.1 21.7C115.6 21.7 115.1 21.8 114.9 22.1C114.5 22.4 114.3 22.8 114.1 23.4L113.9 23.8L113.6 23.9C113.4 23.9 113.3 23.8 113.3 23.5V23.4L115.2 16L116.1 16.2H117.3C118.112 16.264 118.929 16.1619 119.7 15.9H119.8C119.7 16.6 119.3 17.2 118.8 17.5C118.281 17.8895 117.649 18.1 117 18.1H115.4L114.6 21.3Z" fill="#9A565A"/>
<path class="evenodd" d="M231.9 67.5L229 72.5L226.1 67.5H228.5V50H229.5V67.5H231.9Z" fill="#AC6970"/>
<path d="M228.8 41.4C228.2 41.8 227.6 42.3 227.3 42.9C226.9 43.4 226.8 44 226.8 44.7C226.8 45.5 227 46.2 227.5 46.7C228 47.1 228.6 47.4 229.5 47.4C230.3 47.4 231 47.1 231.5 46.7C231.9 46.2 232.2 45.6 232.2 44.7C232.186 44.2224 232.01 43.7638 231.7 43.4L231 42.7L230 42L228.8 41.4ZM230.9 40.2C232.9 41.2 233.9 42.6 233.9 44.2C233.9 44.7 233.7 45.2 233.5 45.8C233.3 46.2 232.9 46.7 232.5 47C232.2 47.4 231.7 47.7 231.1 47.9C229.963 48.2739 228.737 48.2739 227.6 47.9L226.3 47.2L225.3 46.2C225.123 45.7559 225.054 45.2759 225.1 44.8C225.1 43.3 226.1 42 228.1 41.1C226.4 40.1 225.5 39 225.5 37.6C225.505 37.1065 225.615 36.6198 225.822 36.1717C226.029 35.7236 226.328 35.3243 226.7 35C227.4 34.3 228.3 34 229.4 34C230.4 34 231.2 34.2 231.9 34.7C232.4 35 232.7 35.4 232.9 35.8C233.2 36.2 233.3 36.7 233.3 37.1C233.3 37.8 233.1 38.3 232.7 38.8C232.4 39.4 231.7 39.8 230.9 40.2ZM230.2 39.8C230.681 39.4904 231.09 39.0812 231.4 38.6C231.616 38.2609 231.747 37.8748 231.781 37.4745C231.816 37.0741 231.754 36.6712 231.6 36.3L231.1 35.5L230.3 35C230 34.8 229.7 34.8 229.3 34.8C228.6 34.8 228.1 35 227.7 35.3C227.488 35.5058 227.324 35.756 227.221 36.0327C227.117 36.3093 227.076 36.6055 227.1 36.9C227.1 37.3 227.3 37.8 227.6 38.2L229.3 39.4L230.2 39.8Z" fill="#9A565A"/>
<path class="evenodd" d="M231.7 43.4L231 42.7L230 42L228.8 41.4L228.4 41.7C227.955 42.0204 227.581 42.4288 227.3 42.9C226.9 43.4 226.8 44 226.8 44.7C226.8 45.5 227 46.2 227.5 46.7C227.654 46.82 227.822 46.9207 228 47C228.456 47.2626 228.974 47.4006 229.5 47.4C230 47.4 230.5 47.3 230.8 47.1C231.107 46.9611 231.381 46.7563 231.6 46.5C232 46.1 232.2 45.5 232.2 44.8C232.21 44.288 232.032 43.7901 231.7 43.4ZM232.2 47.3C231.421 47.8842 230.474 48.2 229.5 48.2C228.781 48.1979 228.069 48.0623 227.4 47.8L226.3 47.2L225.3 46.2C225.123 45.7559 225.054 45.2759 225.1 44.8C225.1 43.6 225.7 42.6 226.9 41.8C227.278 41.5305 227.679 41.2962 228.1 41.1C227.751 40.8906 227.416 40.6567 227.1 40.4C226.1 39.6 225.5 38.7 225.5 37.6C225.505 37.1065 225.615 36.6198 225.822 36.1717C226.029 35.7236 226.328 35.3243 226.7 35L227 34.7C227.702 34.2096 228.545 33.9637 229.4 34L230.6 34.1C231.064 34.2259 231.503 34.4288 231.9 34.7C232.4 35 232.7 35.4 232.9 35.8C233.2 36.2 233.3 36.7 233.3 37.1C233.3 37.8 233.1 38.3 232.7 38.8C232.456 39.1511 232.151 39.4558 231.8 39.7L230.9 40.2C231.245 40.3806 231.578 40.5809 231.9 40.8C233.2 41.8 233.9 42.8 233.9 44.2C233.9 44.7 233.7 45.2 233.5 45.8C233.207 46.4063 232.759 46.924 232.2 47.3ZM232.8 40.3C233.682 40.9679 234.317 41.9094 234.607 42.977C234.896 44.0446 234.824 45.1781 234.4 46.2C233.798 47.4033 232.762 48.3328 231.5 48.8C230.8 49.1 230.1 49.2 229.4 49.2C228.066 49.2297 226.762 48.8067 225.7 48C225.2 47.6 224.8 47.1 224.5 46.6C224.228 46.0393 224.091 45.423 224.1 44.8C224.1 43.2 224.9 42 226.2 41C225.441 40.3974 224.902 39.5611 224.667 38.6208C224.432 37.6805 224.514 36.6889 224.9 35.8L226 34.2C227 33.4 228.1 33 229.4 33C230.5 33 231.6 33.3 232.4 33.9C233 34.3 233.4 34.8 233.8 35.3C234.1 35.9 234.3 36.5 234.3 37.1C234.3 38 234 38.7 233.5 39.4L232.8 40.2V40.3ZM229.3 39.3C228.5 39 228 38.6 227.6 38.2C227.302 37.8603 227.122 37.4335 227.086 36.9831C227.05 36.5328 227.16 36.0828 227.4 35.7L227.7 35.3C227.936 35.1084 228.208 34.9655 228.5 34.8797C228.792 34.7939 229.098 34.7668 229.4 34.8C229.715 34.7992 230.028 34.8607 230.32 34.9808C230.611 35.1009 230.877 35.2773 231.1 35.5L231.6 36.3L231.8 37.3C231.8 37.7 231.6 38.2 231.4 38.6C231.199 38.981 230.928 39.3203 230.6 39.6C230.47 39.6726 230.336 39.7393 230.2 39.8L229.3 39.4V39.3ZM230.1 38.6L229.8 38.5C229 38.1 228.6 37.8 228.4 37.5C228.234 37.3405 228.128 37.1286 228.1 36.9C228.1 36.5 228.2 36.2 228.4 36.1C228.6 35.9 228.8 35.8 229.4 35.8H229.9V35.9C230.1 35.9 230.2 36.1 230.3 36.2L230.7 36.6V37.2C230.7 37.5 230.7 37.8 230.5 38.1L230.1 38.6ZM230.7 45.9C231 45.7 231.2 45.3 231.2 44.8V44.4H231.1C231.1 44.3 231.1 44.1 230.9 44L230.4 43.5L229.4 42.9L228.9 42.6L228.1 43.4C227.9 43.8 227.8 44.2 227.8 44.7C227.8 45.3 227.9 45.7 228.2 45.9C228.5 46.2 228.8 46.4 229.5 46.4C230.1 46.4 230.5 46.2 230.7 45.9Z" fill="#FEFEFE"/>
    <text class="label-text"  ><tspan x="44" y="175.102">1. Baseline</tspan></text>
    <text class="label-text"  ><tspan x="44" y="197.102">2. Cap height </tspan></text>
    <text class="label-text"  ><tspan x="44" y="219.102">3. Crossbar</tspan></text>
    <text class="label-text"  ><tspan x="150" y="175.102">4. Serif</tspan></text>
    <text class="label-text"  ><tspan x="150" y="197.102">5. Mean line</tspan></text>
    <text class="label-text"  ><tspan x="150" y="219.102">6. Bowl</tspan></text>
    <text class="label-text"  ><tspan x="256" y="175.102">7. Descender</tspan></text>
    <text class="label-text"  ><tspan x="256" y="197.102">8. Counter</tspan></text>
    <text class="label-text"  ><tspan x="256" y="219.102">9. Stem</tspan></text>
    <text class="label-text"  ><tspan x="362" y="175.102">10. Tittle</tspan></text>
    <text class="label-text"  ><tspan x="362" y="197.102">11. Terminal</tspan></text>
    <text class="label-text"  ><tspan x="362" y="219.102">12. Ascender</tspan></text>
    <text class="label-text"  ><tspan x="468" y="175.102">13. Leg</tspan></text>
    <text class="label-text"  ><tspan x="468" y="197.102">14. Ligature</tspan></text>
    <text class="label-text"  ><tspan x="468" y="219.102">15. x-height</tspan></text>
</g>

</svg>
